<svg xmlns="http://www.w3.org/2000/svg" width="25" height="25" viewBox="0 0 25 25" fill="none">
  <path d="M6.06667 3.78334L12.5 10.2167L18.9 3.81668C19.0414 3.66621 19.2117 3.54583 19.4007 3.46278C19.5897 3.37973 19.7936 3.3357 20 3.33334C20.442 3.33334 20.866 3.50894 21.1785 3.8215C21.4911 4.13406 21.6667 4.55798 21.6667 5.00001C21.6706 5.20435 21.6326 5.40732 21.5553 5.59648C21.4779 5.78564 21.3627 5.95699 21.2167 6.10001L14.7333 12.5L21.2167 18.9833C21.4914 19.2521 21.6524 19.616 21.6667 20C21.6667 20.442 21.4911 20.866 21.1785 21.1785C20.866 21.4911 20.442 21.6667 20 21.6667C19.7876 21.6755 19.5757 21.64 19.3777 21.5626C19.1797 21.4851 19 21.3673 18.85 21.2167L12.5 14.7833L6.08334 21.2C5.94252 21.3455 5.77428 21.4616 5.58834 21.5417C5.40241 21.6218 5.20245 21.6643 5.00001 21.6667C4.55798 21.6667 4.13406 21.4911 3.8215 21.1785C3.50893 20.866 3.33334 20.442 3.33334 20C3.32945 19.7957 3.36737 19.5927 3.44475 19.4035C3.52213 19.2144 3.63735 19.043 3.78334 18.9L10.2667 12.5L3.78334 6.01668C3.50865 5.74794 3.34757 5.38403 3.33334 5.00001C3.33334 4.55798 3.50893 4.13406 3.8215 3.8215C4.13406 3.50894 4.55798 3.33334 5.00001 3.33334C5.40001 3.33834 5.78334 3.50001 6.06667 3.78334Z" fill="black"/>
</svg>