<svg xmlns="http://www.w3.org/2000/svg" width="27" height="34" viewBox="0 0 27 34" fill="none">
  <path d="M12.5536 3.77667C12.6782 5.87156 13.7801 7.78628 15.5288 8.94673C16.1966 9.43337 16.9329 9.81796 17.7139 10.0881C20.2803 11.0958 22.3864 13.0126 23.6306 15.4733C24.8745 17.9342 25.1697 20.7666 24.4597 23.4308C23.7496 26.0952 22.0839 28.4051 19.7802 29.92C17.4765 31.4352 14.6959 32.0498 11.9679 31.6464C9.30077 31.1681 6.89035 29.7581 5.16629 27.6677C3.44222 25.5774 2.51659 22.9426 2.5545 20.2333C2.5545 19.4334 2.5545 18.6627 2.63263 17.941H2.63239C3.43946 19.1614 4.5011 20.1931 5.74429 20.965C6.1156 21.1971 6.54528 21.3187 6.98307 21.3161C7.75406 21.3305 8.48321 20.9662 8.93403 20.3407C9.37208 19.7106 9.48089 18.9087 9.22676 18.1849C8.19208 15.5808 7.96423 12.7258 8.57321 9.99042C9.24027 7.56393 10.6281 5.39719 12.5533 3.77687M14.3285 0.333381C14.1941 0.331986 14.062 0.369188 13.9481 0.440801C11.4705 1.96231 7.94884 4.85963 6.74887 9.52273C6.03275 12.6128 6.27083 15.8476 7.43177 18.7999C7.48153 18.9464 7.45851 19.108 7.36992 19.2349C7.28133 19.3619 7.13788 19.4395 6.98302 19.4437C6.8963 19.4402 6.8119 19.4133 6.73912 19.3656C4.51703 18.0433 3.11474 15.6866 3.0129 13.1032C3.00778 12.9116 2.92664 12.7301 2.78759 12.5985C2.64855 12.4666 2.46301 12.3957 2.27142 12.4008C1.95451 12.3938 1.6734 12.6026 1.58852 12.9082C0.931928 15.29 0.622888 17.7541 0.671756 20.2241C0.622929 23.3852 1.70477 26.4596 3.72228 28.8941C5.73979 31.3283 8.56008 32.9619 11.6751 33.5008C12.3652 33.6136 13.0634 33.6689 13.7625 33.6666C17.0318 33.6564 20.1802 32.4287 22.5933 30.2229C25.0062 28.0173 26.5113 24.9917 26.8145 21.7362C27.0865 18.8712 26.4011 15.9967 24.8654 13.5626C23.3299 11.1284 21.0306 9.27212 18.3274 8.28393C17.7264 8.08095 17.1579 7.79194 16.6398 7.4255C15.6428 6.81795 14.9144 5.85375 14.6028 4.72842C14.2912 3.60333 14.4196 2.40169 14.9618 1.36773C15.068 1.14684 15.0546 0.88713 14.9264 0.678099C14.7983 0.469075 14.5728 0.339334 14.3277 0.33375L14.3285 0.333381Z" fill="#E02A20"/>
  <path d="M13.5287 15.4531C13.841 15.5798 14.1627 15.7067 14.5041 15.8237H14.5043C15.5272 16.2317 16.3877 16.9644 16.9534 17.909C17.5191 18.8537 17.7588 19.9582 17.6356 21.0524C17.5168 22.3195 16.9306 23.497 15.991 24.3554C15.0515 25.2138 13.8259 25.6916 12.5534 25.6958C12.2788 25.697 12.0044 25.674 11.7337 25.6275C11.5363 25.5966 11.341 25.5542 11.1485 25.5008C12.3253 24.5174 13.2176 23.2377 13.7336 21.7939C14.403 19.9004 14.403 17.8345 13.7336 15.9409C13.662 15.7524 13.6036 15.5671 13.558 15.385M11.8314 12.4586V12.4584C11.6761 12.4582 11.5275 12.5219 11.4206 12.6344C11.3136 12.7469 11.2576 12.8983 11.2657 13.0534C11.3148 14.2559 11.5485 15.4436 11.9581 16.575C12.4797 18.0486 12.4797 19.6566 11.9581 21.1305C11.3343 22.8597 10.02 24.2519 8.32936 24.9739C8.13824 25.0467 8.00129 25.2166 7.97083 25.4189C7.94061 25.621 8.02175 25.8239 8.18311 25.9495C9.09988 26.7368 10.2118 27.2625 11.4022 27.4713C11.7724 27.5371 12.1478 27.5698 12.5241 27.5687C14.2679 27.5643 15.9476 26.9102 17.2352 25.7342C18.523 24.5584 19.3266 22.9448 19.4891 21.2086C19.6425 19.699 19.2963 18.1807 18.5033 16.8872C17.7102 15.5935 16.5144 14.5963 15.0993 14.0485C14.0363 13.7037 13.023 13.2215 12.085 12.6144C11.9965 12.5435 11.8863 12.5056 11.7728 12.5072L11.8314 12.4586Z" fill="#E02A20"/>
</svg>