<svg width="22" height="19" viewBox="0 0 22 19" fill="none" xmlns="http://www.w3.org/2000/svg">
<g id="Group">
<path id="Vector" d="M4.19439 2.39067L4.19415 2.39078C3.28443 2.81879 2.56998 3.62931 2.19045 4.68587L4.19439 2.39067ZM4.19439 2.39067C4.87857 2.06791 5.62001 1.91461 6.34797 1.91461C7.92316 1.91461 9.39881 2.6293 10.1009 3.83915L10.1014 3.84007L10.4975 4.51597C10.4975 4.51599 10.4975 4.51601 10.4975 4.51602C10.5977 4.68713 10.7791 4.79372 10.9765 4.79904L10.9774 4.79906C11.1806 4.80381 11.3621 4.7051 11.47 4.54094L11.4703 4.5411L11.4764 4.53069L11.8997 3.81379L11.9006 3.81231C12.9322 2.0375 15.6343 1.33984 17.8075 2.36727L17.8079 2.36744C18.7174 2.7957 19.4319 3.60709 19.8111 4.66502C20.2633 5.92724 20.1924 7.4035 19.6222 8.60701L19.6221 8.60716M4.19439 2.39067L19.6221 8.60716M19.6221 8.60716C19.2985 9.29143 18.6646 10.0986 17.8598 10.9458C17.0587 11.7891 16.1031 12.6567 15.1524 13.4616C13.3944 14.9499 11.6645 16.2144 10.9841 16.7017C10.2739 16.1925 8.54161 14.9237 6.79249 13.4395C5.85081 12.6405 4.90751 11.7818 4.11728 10.9478C3.32345 10.1101 2.69893 9.31249 2.3786 8.63558L19.6221 8.60716ZM10.9919 3.10153C9.58566 0.905755 6.29882 0.131352 3.70619 1.35477C2.50896 1.91802 1.59069 2.9675 1.11255 4.29908C0.5577 5.84429 0.643653 7.64582 1.3433 9.12548L1.34334 9.12556C1.7508 9.98648 2.52662 10.9491 3.44616 11.903C4.36954 12.8608 5.45383 13.8259 6.49548 14.6916C8.57779 16.4223 10.5033 17.767 10.6642 17.8788C10.7636 17.9482 10.8783 17.9815 10.9911 17.9815C11.1389 17.9815 11.2858 17.9246 11.3962 17.814C11.7771 17.5469 13.6691 16.2059 15.6667 14.5318C16.6849 13.6784 17.7339 12.7357 18.6253 11.8023C19.5131 10.8727 20.2597 9.93701 20.6568 9.09745C21.356 7.6216 21.4422 5.82257 20.8884 4.2783C20.4109 2.94569 19.4928 1.89524 18.2958 1.33132C15.6951 0.102061 12.3897 0.886076 10.9919 3.10153ZM2.37858 8.63554C1.80756 7.42829 1.73697 5.94905 2.19043 4.68591L2.37858 8.63554Z" fill="#4B4B4B" stroke="#4B4B4B" stroke-width="0.5"/>
</g>
</svg>
