<svg xmlns="http://www.w3.org/2000/svg" width="14" height="14" viewBox="0 0 14 14" fill="none">
  <path d="M3.75934 10.2406H10.2408C10.3705 10.2406 10.4677 10.1812 10.5325 10.0623C10.5973 9.94351 10.5865 9.83008 10.5001 9.72206L8.71767 7.34011C8.65286 7.2537 8.56644 7.21048 8.45841 7.21048C8.35039 7.21048 8.26397 7.2537 8.19916 7.34011L6.51397 9.59243L5.3149 7.98826C5.25008 7.90184 5.16366 7.85863 5.05564 7.85863C4.94761 7.85863 4.86119 7.90184 4.79638 7.98826L3.50008 9.72206C3.41366 9.83008 3.40286 9.94351 3.46767 10.0623C3.53249 10.1812 3.62971 10.2406 3.75934 10.2406ZM2.46305 12.8332C2.10656 12.8332 1.80129 12.7061 1.54721 12.4521C1.29314 12.198 1.16632 11.8929 1.16675 11.5369V2.4628C1.16675 2.10632 1.29379 1.80104 1.54786 1.54697C1.80193 1.29289 2.107 1.16607 2.46305 1.16651H11.5371C11.8936 1.16651 12.1989 1.29354 12.453 1.54762C12.707 1.80169 12.8338 2.10675 12.8334 2.4628V11.5369C12.8334 11.8934 12.7064 12.1986 12.4523 12.4527C12.1982 12.7068 11.8932 12.8336 11.5371 12.8332H2.46305ZM2.46305 11.5369H11.5371V2.4628H2.46305V11.5369Z" fill="white"/>
</svg>