<svg xmlns="http://www.w3.org/2000/svg" width="14" height="14" viewBox="0 0 14 14" fill="none">
  <path d="M6.99984 1.16667C8.58475 1.16667 8.7825 1.17251 9.40434 1.20167C10.0256 1.23084 10.4485 1.32826 10.8207 1.47292C11.2057 1.62109 11.53 1.82176 11.8543 2.14551C12.151 2.43711 12.3805 2.78985 12.5269 3.17917C12.671 3.55076 12.769 3.97425 12.7982 4.5955C12.8256 5.21734 12.8332 5.41509 12.8332 7C12.8332 8.58492 12.8273 8.78267 12.7982 9.4045C12.769 10.0258 12.671 10.4487 12.5269 10.8208C12.3809 11.2104 12.1513 11.5632 11.8543 11.8545C11.5626 12.151 11.2099 12.3805 10.8207 12.5271C10.4491 12.6712 10.0256 12.7692 9.40434 12.7983C8.7825 12.8258 8.58475 12.8333 6.99984 12.8333C5.41492 12.8333 5.21717 12.8275 4.59534 12.7983C3.97409 12.7692 3.55117 12.6712 3.179 12.5271C2.78953 12.3809 2.43673 12.1514 2.14534 11.8545C1.84866 11.5629 1.61913 11.2102 1.47275 10.8208C1.32809 10.4493 1.23067 10.0258 1.2015 9.4045C1.17409 8.78267 1.1665 8.58492 1.1665 7C1.1665 5.41509 1.17234 5.21734 1.2015 4.5955C1.23067 3.97367 1.32809 3.55134 1.47275 3.17917C1.61873 2.78961 1.84831 2.43678 2.14534 2.14551C2.43681 1.84872 2.78959 1.61918 3.179 1.47292C3.55117 1.32826 3.9735 1.23084 4.59534 1.20167C5.21717 1.17426 5.41492 1.16667 6.99984 1.16667ZM6.99984 4.08334C6.22629 4.08334 5.48442 4.39063 4.93744 4.93761C4.39046 5.48459 4.08317 6.22646 4.08317 7C4.08317 7.77355 4.39046 8.51542 4.93744 9.0624C5.48442 9.60938 6.22629 9.91667 6.99984 9.91667C7.77339 9.91667 8.51525 9.60938 9.06223 9.0624C9.60921 8.51542 9.9165 7.77355 9.9165 7C9.9165 6.22646 9.60921 5.48459 9.06223 4.93761C8.51525 4.39063 7.77339 4.08334 6.99984 4.08334ZM10.7915 3.93751C10.7915 3.74412 10.7147 3.55865 10.5779 3.42191C10.4412 3.28516 10.2557 3.20834 10.0623 3.20834C9.86895 3.20834 9.68348 3.28516 9.54674 3.42191C9.40999 3.55865 9.33317 3.74412 9.33317 3.93751C9.33317 4.13089 9.40999 4.31636 9.54674 4.4531C9.68348 4.58985 9.86895 4.66667 10.0623 4.66667C10.2557 4.66667 10.4412 4.58985 10.5779 4.4531C10.7147 4.31636 10.7915 4.13089 10.7915 3.93751ZM6.99984 5.25C7.46397 5.25 7.90909 5.43438 8.23727 5.76257C8.56546 6.09076 8.74984 6.53588 8.74984 7C8.74984 7.46413 8.56546 7.90925 8.23727 8.23744C7.90909 8.56563 7.46397 8.75 6.99984 8.75C6.53571 8.75 6.09059 8.56563 5.7624 8.23744C5.43421 7.90925 5.24984 7.46413 5.24984 7C5.24984 6.53588 5.43421 6.09076 5.7624 5.76257C6.09059 5.43438 6.53571 5.25 6.99984 5.25Z" fill="white"/>
</svg>