<svg xmlns="http://www.w3.org/2000/svg" width="14" height="8" viewBox="0 0 14 8" fill="none">
  <path d="M9.43148 0.00205229C9.26727 0.0241004 9.1318 0.141593 9.08654 0.301008C9.04143 0.460567 9.09524 0.631583 9.22361 0.736474L11.3291 2.60794C11.4117 2.68119 11.5202 2.71861 11.6305 2.71194C11.7409 2.70527 11.844 2.65493 11.9172 2.57225C11.9905 2.48957 12.0278 2.38108 12.0211 2.27083C12.0144 2.16045 11.9641 2.05731 11.8814 1.98406L9.78251 0.112599C9.7097 0.0451492 9.61512 0.00598462 9.51605 0.00206702C9.48791 -0.000689006 9.45962 -0.000703738 9.43148 0.00205229ZM0.730317 3.3358C0.620074 3.34088 0.516219 3.38976 0.441952 3.47128C0.36754 3.55294 0.328664 3.66086 0.333885 3.7711C0.338962 3.88149 0.387844 3.9852 0.469508 4.05961C0.551173 4.13388 0.65895 4.17276 0.769333 4.16753H12.1482L9.22392 6.76689C9.0516 6.92122 9.0371 7.18594 9.19143 7.35828C9.34577 7.53062 9.61049 7.54511 9.78282 7.39077L13.5259 4.06352C13.6563 3.94864 13.7014 3.76485 13.639 3.60254C13.5768 3.44037 13.4203 3.33405 13.2465 3.33579H0.769627C0.756572 3.33521 0.743662 3.33521 0.730606 3.33579L0.730317 3.3358Z" fill="#303030"/>
</svg>