<svg xmlns="http://www.w3.org/2000/svg" width="14" height="14" viewBox="0 0 14 14" fill="none">
  <path d="M3.61491 2.97482C3.61475 3.2995 3.48562 3.61081 3.25592 3.84028C3.02622 4.06975 2.71478 4.19857 2.3901 4.19841C2.06542 4.19825 1.7541 4.06911 1.52463 3.83941C1.29516 3.60972 1.16634 3.29827 1.1665 2.97359C1.16667 2.64891 1.2958 2.3376 1.5255 2.10813C1.7552 1.87866 2.06664 1.74984 2.39132 1.75C2.716 1.75016 3.02732 1.8793 3.25678 2.10899C3.48625 2.33869 3.61508 2.65014 3.61491 2.97482ZM3.65164 5.10493H1.20323V12.7685H3.65164V5.10493ZM7.52012 5.10493H5.08396V12.7685H7.49564V8.74694C7.49564 6.50665 10.4154 6.29853 10.4154 8.74694V12.7685H12.8332V7.91448C12.8332 4.13781 8.51173 4.27859 7.49564 6.13326L7.52012 5.10493Z" fill="white"/>
</svg>