<svg xmlns="http://www.w3.org/2000/svg" width="20" height="20" viewBox="0 0 20 20" fill="none">
  <path d="M4.16675 13.3333H5.83342C5.83342 12.875 5.67008 12.4825 5.34342 12.1558C5.0173 11.8297 4.62508 11.6667 4.16675 11.6667V13.3333ZM7.12508 13.3333H8.33342C8.33342 12.1806 7.92703 11.1978 7.11425 10.385C6.30203 9.57278 5.31953 9.16667 4.16675 9.16667V10.375C4.98619 10.375 5.68425 10.6633 6.26091 11.24C6.83703 11.8161 7.12508 12.5139 7.12508 13.3333ZM9.62508 13.3333H10.8334C10.8334 12.4167 10.6598 11.5519 10.3126 10.7392C9.96536 9.92694 9.4898 9.21861 8.88592 8.61417C8.28147 8.01028 7.57314 7.53472 6.76091 7.1875C5.94814 6.84028 5.08341 6.66667 4.16675 6.66667V7.875C5.68064 7.875 6.96897 8.40611 8.03175 9.46833C9.09397 10.5311 9.62508 11.8194 9.62508 13.3333ZM6.66675 17.5V15.8333H1.66675V2.5H18.3334V15.8333H13.3334V17.5H6.66675ZM3.33341 14.1667H16.6667V4.16667H3.33341V14.1667Z" fill="white"/>
</svg>