<svg xmlns="http://www.w3.org/2000/svg" width="6" height="6" viewBox="0 0 6 6" fill="none">
  <path d="M5.27327 2.54276C5.45947 2.64099 5.57275 2.81401 5.57275 3.00043C5.57275 3.18684 5.45947 3.35986 5.27327 3.44804L1.52367 5.41266C1.3307 5.52317 1.08916 5.52763 0.892025 5.43275C0.795135 5.38614 0.714483 5.31823 0.658367 5.23603C0.602252 5.15382 0.5727 5.06028 0.572754 4.96504V1.03581C0.57277 0.940622 0.602354 0.847153 0.658466 0.765011C0.714578 0.68287 0.795193 0.61502 0.892025 0.568436C0.988879 0.521898 1.09844 0.498309 1.20945 0.500094C1.32046 0.50188 1.42892 0.528974 1.52367 0.578594L5.27327 2.54276Z" fill="white"/>
</svg>