<svg xmlns="http://www.w3.org/2000/svg" width="68" height="48" viewBox="0 0 68 48" fill="none">
  <path d="M53.7516 17.3803C55.3603 14.6015 58.1391 11.5312 62.9651 8.60533C64.281 7.87392 65.1583 6.41213 65.1583 4.9493C65.1583 1.87772 62.0867 -0.169661 59.3091 1.00053C51.2656 4.65656 37.6657 13.5773 37.6657 32.1499C37.6657 40.3391 44.3933 47.0667 52.5826 47.0667C60.9188 47.0667 67.4994 40.3391 67.4994 32.1499C67.3525 24.3991 61.3565 18.1113 53.7514 17.3798L53.7516 17.3803Z" fill="#102B54"/>
  <path d="M16.7526 17.3803C18.3613 14.6015 21.14 11.5312 25.966 8.60533C27.2819 7.87392 28.1592 6.41213 28.1592 4.9493C28.1592 1.87772 25.0876 -0.169661 22.3101 1.00053C14.2666 4.65656 0.666656 13.5773 0.666656 32.1499C0.666656 40.3391 7.39427 47.0667 15.5835 47.0667C23.9198 47.0667 30.5004 40.3391 30.5004 32.1499C30.4993 24.3991 24.5032 18.1113 16.7524 17.3798L16.7526 17.3803Z" fill="#102B54"/>
</svg>