<svg xmlns="http://www.w3.org/2000/svg" width="24" height="24" viewBox="0 0 24 24" fill="none">
  <path d="M10.8727 2L13.0455 5.10909C12.3727 4.86364 11.6364 4.72727 10.8727 4.72727C10.1091 4.72727 9.37273 4.86364 8.7 5.10909L10.8727 2ZM3 6.54545L6.78182 6.22727C6.21759 6.70385 5.73809 7.27249 5.36364 7.90909C4.96364 8.58182 4.73636 9.27273 4.60909 9.99091L3 6.54545ZM3.01818 15.6364L4.61818 12.2091C4.88542 13.675 5.6495 15.0041 6.78182 15.9727L3.01818 15.6364ZM18.7364 6.54545L17.1273 9.99091C16.8698 8.51888 16.1041 7.18379 14.9636 6.21818L18.7364 6.54545ZM21.7818 12.9091H19.9636C19.9636 14.7727 19.2545 16.6364 17.8364 18.0545C17.1618 18.7315 16.3598 19.2681 15.4766 19.6332C14.5934 19.9984 13.6466 20.1848 12.6909 20.1818V22C15.0182 22 17.3455 21.0909 19.1182 19.3364C20.8909 17.5818 21.7818 15.2364 21.7818 12.9091ZM18.1455 12.9091H16.3273C16.3273 13.8182 15.9727 14.7727 15.2636 15.4818C14.5545 16.1909 13.6 16.5455 12.6909 16.5455V18.3636C13.4076 18.365 14.1175 18.2248 14.7798 17.9511C15.4422 17.6775 16.044 17.2757 16.5508 16.769C17.0576 16.2622 17.4593 15.6604 17.7329 14.998C18.0066 14.3356 18.1468 13.6258 18.1455 12.9091ZM10.8727 8.36364C12.3727 8.36364 13.6 9.59091 13.6 11.0909C13.6 12.5909 12.3727 13.8182 10.8727 13.8182C9.37273 13.8182 8.14545 12.5909 8.14545 11.0909C8.14545 9.59091 9.37273 8.36364 10.8727 8.36364ZM10.8727 6.54545C8.36364 6.54545 6.32727 8.58182 6.32727 11.0909C6.32727 13.6 8.36364 15.6364 10.8727 15.6364C13.3818 15.6364 15.4182 13.6 15.4182 11.0909C15.4182 8.58182 13.3818 6.54545 10.8727 6.54545Z" fill="white"/>
</svg>