<svg xmlns="http://www.w3.org/2000/svg" width="22" height="12" viewBox="0 0 22 12" fill="none">
  <path d="M14.6473 0.503078C14.401 0.536151 14.1978 0.712389 14.1299 0.951512C14.0623 1.19085 14.143 1.44737 14.3355 1.60471L17.4937 4.4119C17.6177 4.52178 17.7805 4.57792 17.9458 4.56791C18.1114 4.5579 18.2661 4.4824 18.376 4.35838C18.4859 4.23436 18.5418 4.07161 18.5318 3.90625C18.5218 3.74067 18.4463 3.58597 18.3222 3.47609L15.1739 0.668898C15.0647 0.567724 14.9228 0.508977 14.7742 0.503101C14.732 0.498966 14.6895 0.498944 14.6473 0.503078ZM1.59559 5.5037C1.43023 5.51132 1.27444 5.58464 1.16304 5.70692C1.05142 5.82942 0.993111 5.9913 1.00094 6.15665C1.00856 6.32224 1.08188 6.4778 1.20438 6.58942C1.32687 6.70082 1.48854 6.75913 1.65411 6.7513H18.7224L14.336 10.6503C14.0775 10.8818 14.0558 11.2789 14.2873 11.5374C14.5188 11.7959 14.9158 11.8177 15.1743 11.5862L20.789 6.59528C20.9846 6.42295 21.0522 6.14728 20.9587 5.90381C20.8653 5.66056 20.6306 5.50107 20.3699 5.50368H1.65455C1.63497 5.50281 1.61561 5.50281 1.59602 5.50368L1.59559 5.5037Z" fill="#212529" stroke="#212529" stroke-width="0.2"/>
</svg>