<svg width="68" height="68" viewBox="0 0 68 68" fill="none" xmlns="http://www.w3.org/2000/svg">
<g id="Video">
<circle id="Ellipse 1" cx="34" cy="34" r="34" fill="#E02A20"/>
<path id="Vector" d="M42.8021 32.3611C43.5469 32.8112 44 33.6041 44 34.4584C44 35.3126 43.5469 36.1055 42.8021 36.5096L27.8036 45.5126C27.0318 46.019 26.0656 46.0395 25.2771 45.6047C24.8895 45.3911 24.5669 45.0799 24.3425 44.7032C24.118 44.3265 23.9998 43.8978 24 43.4614V25.4554C24.0001 25.0192 24.1184 24.5909 24.3428 24.2144C24.5673 23.838 24.8898 23.5271 25.2771 23.3136C25.6645 23.1003 26.1028 22.9923 26.5468 23.0004C26.9908 23.0086 27.4246 23.1328 27.8036 23.3602L42.8021 32.3611Z" fill="white"/>
</g>
</svg>
